<svg width="162" height="50" viewBox="0 0 162 50" fill="none" xmlns="http://www.w3.org/2000/svg">
<path d="M24.5007 4.54102C21.8195 4.54102 19.1646 5.06911 16.6876 6.09515C14.2105 7.12118 11.9598 8.62506 10.0639 10.521C6.23502 14.3498 4.08398 19.5429 4.08398 24.9577C4.08398 33.9819 9.94357 41.6381 18.049 44.3536C19.0698 44.5169 19.3965 43.884 19.3965 43.3327V39.8823C13.7411 41.1073 12.5365 37.1465 12.5365 37.1465C11.5973 34.7781 10.2703 34.1452 10.2703 34.1452C8.41232 32.8794 10.4132 32.9202 10.4132 32.9202C12.4548 33.0631 13.5369 35.0231 13.5369 35.0231C15.3132 38.1265 18.3144 37.2077 19.4782 36.7177C19.6619 35.3906 20.1928 34.4923 20.7644 33.9819C16.2319 33.4715 11.4748 31.7156 11.4748 23.9369C11.4748 21.6706 12.2507 19.8536 13.5778 18.404C13.3736 17.8936 12.659 15.7702 13.7819 13.014C13.7819 13.014 15.4969 12.4627 19.3965 15.0965C21.0094 14.6473 22.7653 14.4227 24.5007 14.4227C26.2361 14.4227 27.9919 14.6473 29.6048 15.0965C33.5044 12.4627 35.2194 13.014 35.2194 13.014C36.3423 15.7702 35.6278 17.8936 35.4236 18.404C36.7507 19.8536 37.5265 21.6706 37.5265 23.9369C37.5265 31.7361 32.749 33.4511 28.1961 33.9615C28.9311 34.5944 29.6048 35.8398 29.6048 37.7386V43.3327C29.6048 43.884 29.9315 44.5373 30.9728 44.3536C39.0782 41.6177 44.9173 33.9819 44.9173 24.9577C44.9173 22.2766 44.3893 19.6217 43.3632 17.1446C42.3372 14.6675 40.8333 12.4168 38.9374 10.521C37.0416 8.62506 34.7909 7.12118 32.3138 6.09515C29.8367 5.06911 27.1818 4.54102 24.5007 4.54102Z" fill="black"/>
<path d="M71.4542 20.7078C71.2952 20.1548 71.0717 19.6661 70.7838 19.2419C70.4959 18.8101 70.1436 18.4464 69.727 18.151C69.3179 17.848 68.8482 17.6169 68.3179 17.4578C67.7952 17.2987 67.2156 17.2192 66.5792 17.2192C65.3899 17.2192 64.3444 17.5146 63.4429 18.1055C62.5489 18.6964 61.852 19.5563 61.352 20.6851C60.852 21.8063 60.602 23.1775 60.602 24.7987C60.602 26.4199 60.8482 27.7987 61.3406 28.9351C61.833 30.0714 62.53 30.9389 63.4315 31.5373C64.333 32.1283 65.3974 32.4237 66.6247 32.4237C67.7383 32.4237 68.6891 32.2267 69.477 31.8328C70.2724 31.4313 70.8785 30.8669 71.2952 30.1396C71.7194 29.4123 71.9315 28.5525 71.9315 27.5601L72.9315 27.7078H66.9315V24.0033H76.6702V26.9351C76.6702 28.9805 76.2383 30.7381 75.3747 32.2078C74.5111 33.6699 73.3217 34.7987 71.8065 35.5942C70.2914 36.382 68.5565 36.776 66.602 36.776C64.4202 36.776 62.5035 36.2949 60.852 35.3328C59.2005 34.3631 57.9126 32.9881 56.9883 31.2078C56.0717 29.4199 55.6133 27.2987 55.6133 24.8442C55.6133 22.9578 55.8861 21.276 56.4315 19.7987C56.9845 18.3139 57.7573 17.0563 58.7497 16.026C59.7421 14.9957 60.8974 14.2116 62.2156 13.6737C63.5338 13.1358 64.9618 12.8669 66.4997 12.8669C67.8179 12.8669 69.0452 13.0601 70.1815 13.4464C71.3179 13.8252 72.3255 14.3631 73.2042 15.0601C74.0906 15.757 74.8141 16.5866 75.3747 17.5487C75.9353 18.5033 76.2952 19.5563 76.4542 20.7078H71.4542ZM81.369 36.4578V19.0033H86.2099V36.4578H81.369ZM83.8008 16.7533C83.0811 16.7533 82.4637 16.5146 81.9486 16.0373C81.441 15.5525 81.1872 14.973 81.1872 14.2987C81.1872 13.632 81.441 13.0601 81.9486 12.5828C82.4637 12.098 83.0811 11.8555 83.8008 11.8555C84.5205 11.8555 85.1342 12.098 85.6417 12.5828C86.1569 13.0601 86.4145 13.632 86.4145 14.2987C86.4145 14.973 86.1569 15.5525 85.6417 16.0373C85.1342 16.5146 84.5205 16.7533 83.8008 16.7533ZM99.3719 19.0033V22.6396H88.8605V19.0033H99.3719ZM91.2469 14.8214H96.0878V31.0942C96.0878 31.5411 96.156 31.8896 96.2923 32.1396C96.4287 32.382 96.6181 32.5525 96.8605 32.651C97.1105 32.7495 97.3984 32.7987 97.7241 32.7987C97.9514 32.7987 98.1787 32.7798 98.4059 32.7419C98.6332 32.6964 98.8075 32.6623 98.9287 32.6396L99.69 36.2419C99.4476 36.3176 99.1067 36.4048 98.6673 36.5033C98.2279 36.6093 97.6938 36.6737 97.065 36.6964C95.8984 36.7419 94.8756 36.5866 93.9969 36.2305C93.1256 35.8745 92.4476 35.3214 91.9628 34.5714C91.4779 33.8214 91.2393 32.8745 91.2469 31.7305V14.8214ZM107.741 26.3669V36.4578H102.901V13.1851H107.605V22.0828H107.81C108.204 21.0525 108.84 20.2457 109.719 19.6623C110.598 19.0714 111.7 18.776 113.026 18.776C114.238 18.776 115.295 19.0411 116.196 19.5714C117.105 20.0942 117.81 20.848 118.31 21.8328C118.817 22.8101 119.067 23.9805 119.06 25.3442V36.4578H114.219V26.2078C114.226 25.132 113.954 24.2949 113.401 23.6964C112.855 23.098 112.09 22.7987 111.105 22.7987C110.446 22.7987 109.863 22.9389 109.355 23.2192C108.855 23.4995 108.461 23.9086 108.173 24.4464C107.893 24.9767 107.749 25.6169 107.741 26.3669ZM134.062 29.026V19.0033H138.903V36.4578H134.256V33.2873H134.074C133.68 34.3101 133.025 35.132 132.108 35.7533C131.199 36.3745 130.089 36.6851 128.778 36.6851C127.612 36.6851 126.585 36.4199 125.699 35.8896C124.813 35.3593 124.119 34.6055 123.619 33.6283C123.127 32.651 122.877 31.4805 122.869 30.1169V19.0033H127.71V29.2533C127.718 30.2836 127.994 31.098 128.54 31.6964C129.085 32.2949 129.816 32.5942 130.733 32.5942C131.316 32.5942 131.862 32.4616 132.369 32.1964C132.877 31.9237 133.286 31.5222 133.597 30.9919C133.915 30.4616 134.07 29.8063 134.062 29.026ZM142.866 36.4578V13.1851H147.707V21.9351H147.855C148.067 21.4654 148.374 20.9881 148.776 20.5033C149.185 20.0108 149.715 19.6017 150.366 19.276C151.026 18.9426 151.844 18.776 152.821 18.776C154.094 18.776 155.268 19.1093 156.344 19.776C157.42 20.4351 158.279 21.4313 158.923 22.7646C159.567 24.0904 159.889 25.7533 159.889 27.7533C159.889 29.7002 159.575 31.3442 158.946 32.6851C158.325 34.0184 157.476 35.0298 156.401 35.7192C155.332 36.401 154.135 36.7419 152.81 36.7419C151.87 36.7419 151.071 36.5866 150.412 36.276C149.76 35.9654 149.226 35.5752 148.81 35.1055C148.393 34.6283 148.075 34.1472 147.855 33.6623H147.639V36.4578H142.866ZM147.605 27.7305C147.605 28.7684 147.749 29.6737 148.037 30.4464C148.325 31.2192 148.741 31.8214 149.287 32.2533C149.832 32.6775 150.495 32.8896 151.276 32.8896C152.063 32.8896 152.73 32.6737 153.276 32.2419C153.821 31.8025 154.234 31.1964 154.514 30.4237C154.802 29.6434 154.946 28.7457 154.946 27.7305C154.946 26.723 154.806 25.8366 154.526 25.0714C154.245 24.3063 153.832 23.7078 153.287 23.276C152.741 22.8442 152.071 22.6283 151.276 22.6283C150.488 22.6283 149.821 22.8366 149.276 23.2533C148.738 23.6699 148.325 24.2608 148.037 25.026C147.749 25.7911 147.605 26.6926 147.605 27.7305Z" fill="black"/>
</svg>
